<svg width="32" height="32" viewBox="0 0 32 32" fill="none" xmlns="http://www.w3.org/2000/svg">
<path d="M6.63194 29V17.48H14.2959V18.408H7.71994V22.568H13.6559V23.496H7.71994V28.072H14.4559V29H6.63194ZM17.5012 18.952H17.4692V29H16.3812V17.48H17.6132L24.2692 27.544H24.3012V17.48H25.3892V29H24.1252L17.5012 18.952Z" fill="#D83E1D"/>
<path d="M10.6506 7.84C11.056 7.84 11.4293 7.79733 11.7706 7.712C12.1226 7.62667 12.4266 7.49333 12.6826 7.312C12.9386 7.12 13.1413 6.88 13.2906 6.592C13.44 6.304 13.5146 5.95733 13.5146 5.552C13.5146 5.12533 13.4346 4.77333 13.2746 4.496C13.1253 4.21867 12.9173 4 12.6506 3.84C12.3946 3.68 12.096 3.568 11.7546 3.504C11.424 3.44 11.0773 3.408 10.7146 3.408H7.25863V7.84H10.6506ZM7.25863 8.768V14H6.17063V2.48H10.6826C11.952 2.48 12.9226 2.72 13.5946 3.2C14.2666 3.66933 14.6026 4.43733 14.6026 5.504C14.6026 6.22933 14.4533 6.80533 14.1546 7.232C13.8666 7.65867 13.392 8.02133 12.7306 8.32C13.072 8.43733 13.3386 8.608 13.5306 8.832C13.7226 9.056 13.8666 9.312 13.9626 9.6C14.0586 9.888 14.1173 10.192 14.1386 10.512C14.1706 10.832 14.192 11.1413 14.2026 11.44C14.2133 11.8773 14.2293 12.24 14.2506 12.528C14.2826 12.816 14.3146 13.0507 14.3466 13.232C14.3893 13.4133 14.4373 13.5573 14.4906 13.664C14.544 13.76 14.608 13.8347 14.6826 13.888V14H13.4826C13.3653 13.808 13.28 13.5413 13.2266 13.2C13.184 12.8587 13.1466 12.5013 13.1146 12.128C13.0933 11.7547 13.072 11.392 13.0506 11.04C13.04 10.688 13.0133 10.4 12.9706 10.176C12.9066 9.86667 12.8 9.62133 12.6506 9.44C12.512 9.248 12.3413 9.104 12.1386 9.008C11.936 8.912 11.7066 8.848 11.4506 8.816C11.2053 8.784 10.9493 8.768 10.6826 8.768H7.25863ZM16.8745 2.48H17.9625V9.344C17.9625 10.7733 18.2292 11.8027 18.7625 12.432C19.2958 13.0613 20.1545 13.376 21.3385 13.376C21.9572 13.376 22.4798 13.296 22.9065 13.136C23.3438 12.9653 23.6958 12.7147 23.9625 12.384C24.2292 12.0427 24.4212 11.6213 24.5385 11.12C24.6558 10.6187 24.7145 10.0267 24.7145 9.344V2.48H25.8025V9.664C25.8025 11.168 25.4292 12.32 24.6825 13.12C23.9465 13.9093 22.8318 14.304 21.3385 14.304C19.8345 14.304 18.7145 13.8987 17.9785 13.088C17.2425 12.2773 16.8745 11.136 16.8745 9.664V2.48Z" fill="black"/>
<line x1="1" y1="15.75" x2="31" y2="15.75" stroke="#D83E1D" stroke-width="0.5"/>
</svg>
